<?xml version="1.0" encoding="utf-8"?>
<!-- Generator: Adobe Illustrator 24.2.1, SVG Export Plug-In . SVG Version: 6.00 Build 0)  -->
<svg version="1.1" id="Layer_1" xmlns="http://www.w3.org/2000/svg" xmlns:xlink="http://www.w3.org/1999/xlink" x="0px" y="0px"
	 viewBox="0 0 708 130" style="enable-background:new 0 0 708 130;" xml:space="preserve">
<g>
	<path d="M14.9,92.1c1.4,7.5,4.9,13.3,10.3,17.4c5.4,4.1,12.1,6.2,20,6.2c11,0,19-4.1,24.1-12.2l12.3,7
		c-8.1,12.6-20.4,18.9-36.8,18.9c-13.3,0-24.1-4.2-32.3-12.5C4.2,108.7,0,98.2,0,85.5c0-12.6,4.1-23,12.2-31.4
		c8.1-8.3,18.7-12.5,31.6-12.5c12.2,0,22.2,4.3,30,12.9c7.7,8.6,11.6,19,11.6,31.2c0,2.1-0.2,4.3-0.5,6.5H14.9z M43.8,55.3
		c-7.8,0-14.3,2.2-19.4,6.6c-5.1,4.4-8.3,10.3-9.5,17.6h55.8c-1.2-7.9-4.3-13.9-9.4-18.1C56.3,57.3,50.5,55.3,43.8,55.3z"/>
	<path d="M637.6,92.1c1.4,7.5,4.9,13.3,10.3,17.4c5.4,4.1,12.1,6.2,20,6.2c11,0,19-4.1,24.1-12.2l12.3,7
		c-8.1,12.6-20.4,18.9-36.8,18.9c-13.3,0-24.1-4.2-32.3-12.5c-8.3-8.3-12.5-18.8-12.5-31.5c0-12.6,4.1-23,12.2-31.4
		c8.1-8.3,18.7-12.5,31.6-12.5c12.2,0,22.2,4.3,30,12.9s11.6,19,11.6,31.2c0,2.1-0.2,4.3-0.5,6.5H637.6z M666.4,55.3
		c-7.8,0-14.3,2.2-19.4,6.6c-5.1,4.4-8.3,10.3-9.5,17.6h55.8c-1.2-7.9-4.3-13.9-9.4-18.1C679,57.3,673.1,55.3,666.4,55.3z"/>
	<path d="M144.2,57.8H122V103c0,4.1,0.8,7.1,2.4,8.8c1.6,1.7,4.1,2.6,7.4,2.7c3.4,0.1,7.5,0,12.3-0.3v13c-12.7,1.7-22,0.6-27.9-3.1
		c-5.9-3.7-8.9-10.8-8.9-21.1V57.8H90.9V43.7h16.6V14.5H122v29.2h22.2V57.8z"/>
	<path d="M357.6,43.7H343v83.5h14.5V72.8h14.6V58.3h-14.6V43.7z"/>
	<path d="M386.7,43.7h-14.5v14.5h14.5V43.7z"/>
	<path d="M520.9,88c0,9.4-2.2,16.3-6.7,20.8c-4.4,4.5-10.3,6.8-17.5,6.8c-6.5,0-11.5-1.9-15.2-5.6c-3.7-3.7-5.5-9-5.5-15.8V43.7
		h-14.5V95c0,10.6,2.9,19,8.9,25.1c5.9,6.2,13.7,9.2,23.6,9.2c12.1,0,21.2-4.8,27-14.2v12h14.5V72.8h-14.5L520.9,88L520.9,88z"/>
	<path d="M535.4,43.7h-14.5v14.5h14.5V43.7z"/>
	<path d="M595.7,43.7h-31.2v14.5h31.2V43.7z"/>
	<path d="M610.2,58.3h-14.5v14.5h14.5V58.3z"/>
	<path d="M564.6,58.3H550v14.5h14.5V58.3z"/>
	<path d="M579.1,72.8h-14.5v14.5h14.5V72.8z"/>
	<path d="M610.2,87.4h-31.2v14.5h16.6c0,6-1.3,9-4.4,10.8c-3.1,1.8-7.1,2.8-11.9,2.8c-5.1,0-9.5-1.2-13.2-3.5
		c-3.7-2.4-6.2-5.5-7.5-9.5l-12.5,7.2c2.5,5.9,6.6,10.6,12.3,14.2c5.8,3.6,12.8,5.3,20.9,5.3c9.1,0,16.6-2.3,22.4-6.8
		s8.3-11.7,8.3-20.4L610.2,87.4z"/>
	<path d="M299.4,83.3h14.5h3.9h10.6v-25h-14.5V43.7h-29.1c-9.7,0.4-19,3.8-26.2,10c-8.8,7.6-13.5,19.1-13.5,31.7
		c0,12.7,4.2,23.2,12.5,31.5c8.3,8.3,19.1,12.5,32.3,12.5c16.4,0,28.6-6.3,36.8-18.9l-12.4-7.1c-5,8.1-13,12.2-24.1,12.2
		c-7.9,0-14.5-2.1-20-6.2c-3.8-2.9-7-7.2-8.8-11.8h37.9V83.3z M268.1,63.7c3.4-3.1,9.1-5.2,16.7-5.4h29.1v10.5h-14.5v14.5h-40.2
		c0.1-1.1,0.2-2.4,0.4-3.8C260.2,74.5,263.7,67.7,268.1,63.7z"/>
	<path d="M218.2,43.7h-30.4v14.5h30.4V43.7z"/>
	<path d="M232.7,58.3h-14.5v69h14.5V58.3z"/>
	<path d="M187.8,72.8h-14.5V55.7c0,0,0,0,0,0.1V0h-14.5v127.3h14.5V87.4h14.5V72.8z"/>
	<path d="M427,43.7V14.6h-14.5v29.1h-13.3v14.5h13.4v69H427v-69h22V43.7H427L427,43.7z"/>
	<path d="M449.1,0.1H427v14.5h22.1V0.1z"/>
</g>
</svg>
