<svg width="334" height="303" viewBox="0 0 334 303" fill="none" xmlns="http://www.w3.org/2000/svg">
<rect width="334" height="303" fill="white" fill-opacity="0.01"/>
<path fill-rule="evenodd" clip-rule="evenodd" d="M95.984 252.728L95.8813 252.664L95.1941 252.233L94.807 251.865L94.4041 251.465L94.0091 251.065L93.6142 250.665L93.2192 250.265L92.8242 249.865L92.4292 249.465L92.0342 249.065L91.6393 248.665L91.2443 248.257L90.873 247.865L90.4543 247.337L90.2647 247.065L89.854 246.265L89.6644 245.993L89.2457 245.465L88.8744 245.073L88.4795 244.665L88.0845 244.257L87.7132 243.865L87.2945 243.338L87.1049 243.066L86.6942 242.266L86.5046 241.986L86.1096 241.466L85.7146 240.938L85.525 240.666L85.1379 239.866L84.9247 239.466L84.7114 239.066L84.348 238.266L84.1347 237.866L83.9214 237.466L83.558 236.666L83.3447 236.266L83.1315 235.866L82.7681 235.066L82.5548 234.667L82.3415 234.267L81.9781 233.467L81.7648 233.035L81.5832 232.667L81.3699 231.867L81.1566 231.067L80.9749 230.667L80.7932 230.267L80.5799 229.467L80.3666 228.667L80.1849 228.267L80.0032 227.867L79.8295 227.067L79.79 226.267V225.468L79.7505 224.668L79.5767 223.868L79.395 223.468L79.2133 223.068L79.0395 222.268L79 221.468V220.668V219.868V219.068V218.268V217.468V216.669V215.869V215.069V214.269V213.469V212.669V211.869L79.0395 211.069L79.2133 210.269L79.395 209.869L79.5767 209.469L79.7505 208.669L79.79 207.87L79.8295 207.07L80.0032 206.27L80.1849 205.87L80.3666 205.47L80.5483 204.67L80.6115 203.87L80.8011 203.07L80.9749 202.702L81.1882 202.27L81.5516 201.47L81.7648 201.07L81.9781 200.67L82.3415 199.87L82.5548 199.471L82.7681 199.071L83.1315 198.271L83.3447 197.871L83.558 197.471L83.9214 196.671L84.1347 196.271L84.348 195.871L84.7114 195.071L84.9247 194.671L85.1379 194.271L85.525 193.471L85.7146 193.199L86.1096 192.671L86.5046 192.151L86.6942 191.871L87.1049 191.071L87.2945 190.8L87.7132 190.272L88.0845 189.88L88.4795 189.472L88.8744 189.072L89.2694 188.672L89.6644 188.272L90.0594 187.872L90.4543 187.464L90.8256 187.072L91.2443 186.544L91.4339 186.272L91.8526 185.472L92.0342 185.224L92.5793 184.672L92.8242 184.488L93.6142 184.064L93.8827 183.872L94.4041 183.448L94.7912 183.072L95.1941 182.608L95.4784 182.272L95.7786 181.473L95.1941 180.897L94.9729 180.673L94.4041 180.249L94.017 179.873L93.6142 179.473L93.2192 179.073L92.8242 178.673L92.4292 178.273L92.0342 177.865L91.663 177.473L91.2443 176.945L91.0547 176.673L90.6439 175.873L90.4543 175.601L90.0357 175.073L89.6644 174.681L89.2694 174.273L88.8744 173.873L88.4795 173.473L88.0845 173.066L87.7132 172.674L87.2945 172.146L87.1049 171.874L86.6942 171.074L86.5046 170.794L86.1096 170.274L85.7146 169.746L85.525 169.474L85.1379 168.674L84.9247 168.274L84.7114 167.874L84.348 167.074L84.1347 166.674L83.9214 166.274L83.558 165.474L83.3447 165.074L83.1315 164.674L82.7681 163.875L82.5548 163.443L82.3731 163.075L82.1598 162.275L81.9465 161.475L81.7648 161.107L81.5516 160.675L81.1882 159.875L80.9749 159.443L80.8011 159.075L80.6115 158.275L80.5483 157.475L80.3666 156.675L80.1849 156.275L80.0032 155.875L79.8216 155.076L79.7584 154.276L79.5767 153.476L79.395 153.076L79.2133 152.676L79.0395 151.876L79 151.076V150.276V149.476V148.676V147.876V147.076V146.277V145.477V144.677V143.877V143.077V142.277V141.477V140.677V139.877L79.0395 139.077L79.2133 138.277L79.395 137.878L79.5767 137.478L79.7505 136.678L79.79 135.878L79.8295 135.078L80.0032 134.278L80.1849 133.878L80.3666 133.478L80.5799 132.678L80.7932 131.878L80.9749 131.478L81.1566 131.078L81.3699 130.278L81.5832 129.478L81.7648 129.111L81.9781 128.679L82.3415 127.879L82.5548 127.479L82.7681 127.079L83.1315 126.279L83.3447 125.879L83.558 125.479L83.9214 124.679L84.1347 124.279L84.348 123.879L84.7351 123.079L84.9247 122.807L85.3196 122.279L85.7146 121.759L85.9042 121.479L86.315 120.679L86.5046 120.4L86.8995 119.88L87.2945 119.36L87.4841 119.08L87.8949 118.28L88.0845 118.008L88.5032 117.48L88.8744 117.088L89.2694 116.68L89.6644 116.28L90.0594 115.88L90.4543 115.48L90.8493 115.08L91.2443 114.68L91.6393 114.28L92.0342 113.88L92.4292 113.48L92.8242 113.08L93.2192 112.68L93.6142 112.28L94.017 111.881L94.4041 111.505L94.9255 111.081L95.1941 110.889L95.984 110.473L96.2526 110.281L96.774 109.857L97.169 109.481L97.5639 109.105L98.0853 108.681L98.3539 108.489L99.1438 108.073L99.4203 107.881L99.9338 107.481L100.455 107.081L100.724 106.889L101.514 106.497L101.909 106.281L102.304 106.065L103.094 105.697L103.489 105.481L103.884 105.265L104.674 104.897L105.068 104.681L105.463 104.465L106.253 104.097L106.648 103.881L107.043 103.665L107.833 103.297L108.228 103.082L108.623 102.866L109.413 102.498L109.808 102.282L110.203 102.066L110.993 101.698L111.388 101.482L111.783 101.266L112.573 100.898L112.968 100.682L113.363 100.466L114.153 100.098L114.548 99.8819L114.943 99.6659L115.733 99.2979L116.128 99.082L116.523 98.866L117.313 98.498L117.708 98.282L118.103 98.0661L118.893 97.6981L119.288 97.4821L119.683 97.2662L120.473 96.8982L120.868 96.6822L121.263 96.4663L122.053 96.0983L122.447 95.8823L122.842 95.6663L123.632 95.2984L124.027 95.0824L124.422 94.8664L125.212 94.4985L125.607 94.2825L126.002 94.0665L126.792 93.6986L127.187 93.4826L127.582 93.2666L128.372 92.8987L128.767 92.6827L129.162 92.4667L129.952 92.0987L130.347 91.8828L130.742 91.6668L131.532 91.2988L131.927 91.0829L132.322 90.8669L133.112 90.4989L133.507 90.283L133.902 90.067L134.692 89.699L135.087 89.4831L135.482 89.2671L136.272 88.8991L136.667 88.6831L137.062 88.4672L137.852 88.0992L138.247 87.8832L138.642 87.6673L139.432 87.2993L139.826 87.0833L140.221 86.8674L141.011 86.4994L141.406 86.2834L141.801 86.0674L142.591 85.6995L142.986 85.4835L143.381 85.2675L144.171 84.8996L144.566 84.6836L144.961 84.4676L145.751 84.0997L146.146 83.8837L146.541 83.6677L147.331 83.2998L147.726 83.0838L148.121 82.8678L148.911 82.4998L149.306 82.2839L149.701 82.0679L150.491 81.6999L150.886 81.484L151.281 81.268L152.071 80.9L152.466 80.6841L152.861 80.4681L153.651 80.1001L154.046 79.8841L154.441 79.6682L155.231 79.3002L155.626 79.0842L156.021 78.8683L156.811 78.5003L157.205 78.2843L157.6 78.0683L158.39 77.7004L158.785 77.4844L159.18 77.2684L159.97 76.9005L160.365 76.6845L160.76 76.4685L161.55 76.1006L161.945 75.8846L162.34 75.6686L163.13 75.3007L163.557 75.0847L163.92 74.9007L164.71 74.6847L165.5 74.4688L165.863 74.2848L166.29 74.0688L167.08 73.6769L167.348 73.4849L167.87 73.0849L168.391 72.685L168.66 72.493L169.45 72.101L169.845 71.8851L170.24 71.6691L171.03 71.3011L171.425 71.0851L171.82 70.8692L172.61 70.5012L173.005 70.2852L173.4 70.0693L174.19 69.7013L174.584 69.4853L174.979 69.2694L175.769 68.9014L176.196 68.6854L176.559 68.5014L177.349 68.2855L178.139 68.0695L178.503 67.8855L178.929 67.6695L179.719 67.3016L180.114 67.0856L180.509 66.8696L181.299 66.5017L181.694 66.2857L182.089 66.0697L182.879 65.7018L183.274 65.4858L183.669 65.2698L184.459 64.8779L184.727 64.6859L185.249 64.2859L185.77 63.886L186.039 63.694L186.829 63.302L187.224 63.0861L187.619 62.8701L188.409 62.5021L188.835 62.2861L189.199 62.1022L189.989 61.8862L190.779 61.6702L191.142 61.4862L191.568 61.2703L192.358 60.9023L192.753 60.6863L193.148 60.4704L193.938 60.1024L194.333 59.8864L194.728 59.6704L195.518 59.3025L195.913 59.0865L196.308 58.8705L197.098 58.5026L197.493 58.2866L197.888 58.0706L198.678 57.7027L199.073 57.4867L199.468 57.2707L200.258 56.9028L200.653 56.6868L201.048 56.4708L201.838 56.1029L202.233 55.8869L202.628 55.6709L203.418 55.3029L203.813 55.087L204.208 54.871L204.998 54.503L205.393 54.2871L205.788 54.0711L206.578 53.7031L206.973 53.4871L207.368 53.2712L208.158 52.9032L208.553 52.6872L208.947 52.4713L209.737 52.1033L210.132 51.8873L210.527 51.6714L211.317 51.3034L211.712 51.0874L212.107 50.8714L212.897 50.5035L213.292 50.2875L213.687 50.0715L214.477 49.7036L214.88 49.4876L215.267 49.2796L216.057 49.0157L216.847 49.1756L217.06 49.4876L217.218 50.2875L217.242 51.0874V51.8873V52.6872V53.4871V54.2871V55.087V55.8869V56.6868V57.4867V58.2866V59.0865V59.8864V60.6863V61.4862V62.2861V63.0861V63.886V64.6859V65.4858V66.2857V67.0856V67.8855V68.6854V69.4853V70.2852V71.0851V71.8851V72.685V73.4849V74.2848V75.0847V75.8846V76.6845V77.4844L217.203 78.2843L217.029 79.0842L216.847 79.4842L216.665 79.8841L216.492 80.6841L216.452 81.484L216.413 82.2839L216.239 83.0838L216.057 83.4837L215.875 83.8837L215.694 84.6836L215.631 85.4835L215.441 86.2834L215.267 86.6514L215.054 87.0833L214.69 87.8832L214.477 88.3152L214.295 88.6831L214.082 89.4831L213.869 90.283L213.687 90.6509L213.474 91.0829L213.111 91.8828L212.897 92.2827L212.684 92.6827L212.321 93.4826L212.107 93.8825L211.894 94.2825L211.507 95.0824L211.317 95.3544L210.922 95.8823L210.527 96.4023L210.338 96.6822L209.927 97.4821L209.737 97.7621L209.342 98.282L208.947 98.802L208.758 99.082L208.347 99.8819L208.158 100.154L207.739 100.682L207.368 101.074L206.973 101.482L206.578 101.882L206.183 102.282L205.788 102.682L205.393 103.082L204.998 103.481L204.603 103.881L204.208 104.281L203.813 104.681L203.418 105.081L203.023 105.481L202.628 105.881L202.233 106.281L201.838 106.681L201.443 107.081L201.048 107.481L200.645 107.881L200.258 108.257L199.737 108.681L199.468 108.873L198.678 109.289L198.402 109.481L197.888 109.881L197.375 110.281L197.098 110.473L196.308 110.889L196.032 111.081L195.518 111.481L195.005 111.881L194.728 112.072L193.938 112.488L193.662 112.68L193.148 113.08L192.595 113.48L192.358 113.64L191.568 113.88L190.779 114.096L190.415 114.28L189.989 114.496L189.199 114.864L188.804 115.08L188.409 115.296L187.619 115.664L187.224 115.88L186.829 116.096L186.039 116.488L185.77 116.68L185.249 117.08L184.727 117.48L184.459 117.672L183.669 118.064L183.274 118.28L182.879 118.496L182.089 118.864L181.694 119.08L181.299 119.296L180.509 119.664L180.083 119.88L179.719 120.064L178.929 120.28L178.139 120.496L177.776 120.679L177.349 120.895L176.559 121.263L176.164 121.479L175.769 121.695L174.979 122.063L174.584 122.279L174.19 122.495L173.4 122.863L173.005 123.079L172.61 123.295L171.82 123.663L171.425 123.879L171.03 124.095L170.24 124.463L169.845 124.679L169.45 124.895L168.66 125.263L168.265 125.479L167.87 125.695L167.08 126.063L166.685 126.279L166.29 126.495L165.5 126.863L165.105 127.079L164.71 127.295L163.92 127.663L163.525 127.879L163.13 128.095L162.34 128.463L161.945 128.679L161.55 128.895L160.76 129.263L160.365 129.478L159.97 129.694L159.18 130.062L158.785 130.278L158.39 130.494L157.6 130.862L157.205 131.078L156.811 131.294L156.021 131.662L155.626 131.878L155.231 132.094L154.441 132.462L154.014 132.678L153.651 132.862L152.861 133.078L152.071 133.294L151.707 133.478L151.281 133.694L150.491 134.062L150.096 134.278L149.701 134.494L148.911 134.862L148.516 135.078L148.121 135.294L147.331 135.662L146.936 135.878L146.541 136.094L145.751 136.462L145.356 136.678L144.961 136.894L144.171 137.262L143.776 137.478L143.381 137.694L142.591 138.062L142.196 138.277L141.801 138.493L141.011 138.861L140.616 139.077L140.221 139.293L139.432 139.661L139.037 139.877L138.642 140.093L137.852 140.461L137.457 140.677L137.062 140.893L136.272 141.261L135.877 141.477L135.482 141.693L134.692 142.061L134.297 142.277L133.902 142.493L133.112 142.861L132.717 143.077L132.322 143.293L131.532 143.661L131.137 143.877L130.742 144.093L129.952 144.461L129.525 144.677L129.162 144.861L128.372 145.077L127.582 145.293L127.219 145.477L126.792 145.693L126.002 146.061L125.607 146.277L125.212 146.493L124.422 146.861L124.027 147.076L123.632 147.292L122.842 147.66L122.447 147.876L122.053 148.092L121.263 148.46L120.868 148.676L120.473 148.892L119.683 149.26L119.288 149.476L118.893 149.692L118.103 150.06L117.708 150.276L117.313 150.492L116.523 150.86L116.128 151.076L115.733 151.292L114.943 151.66L114.548 151.876L114.153 152.092L113.363 152.484L113.094 152.676L112.573 153.076L112.06 153.476L111.783 153.668L110.993 154.084L110.725 154.276L110.203 154.7L109.816 155.076L109.413 155.476L109.01 155.875L108.623 156.251L108.102 156.675L107.833 156.867L107.043 157.283L106.775 157.475L106.253 157.899L105.866 158.275L105.463 158.683L105.092 159.075L104.674 159.603L104.484 159.875L104.073 160.675L103.884 160.947L103.465 161.475L103.094 161.867L102.699 162.275L102.304 162.683L101.932 163.075L101.514 163.603L101.324 163.875L100.937 164.674L100.724 165.074L100.51 165.474L100.147 166.274L99.9338 166.674L99.7205 167.074L99.3571 167.874L99.1438 168.306L98.9621 168.674L98.7489 169.474L98.5356 170.274L98.3539 170.674L98.1722 171.074L97.9589 171.874L97.7456 172.674L97.5639 173.074L97.3822 173.473L97.169 174.273L96.9557 175.073L96.774 175.473L96.5923 175.873L96.4185 176.673L96.379 177.473V178.273L96.3948 179.073L96.4817 179.873L96.774 180.393L97.5639 180.369L98.3539 180.057L98.6146 179.873L99.1438 179.473L99.6573 179.073L99.9338 178.881L100.724 178.465L101 178.273L101.514 177.873L102.067 177.473L102.304 177.313L103.094 177.073L103.884 176.857L104.247 176.673L104.674 176.457L105.463 176.089L105.858 175.873L106.253 175.657L107.043 175.289L107.438 175.073L107.833 174.857L108.623 174.489L109.018 174.273L109.413 174.057L110.203 173.689L110.598 173.473L110.993 173.258L111.783 172.89L112.178 172.674L112.573 172.458L113.363 172.09L113.758 171.874L114.153 171.658L114.943 171.29L115.338 171.074L115.733 170.858L116.523 170.49L116.918 170.274L117.313 170.058L118.103 169.69L118.498 169.474L118.893 169.258L119.683 168.89L120.078 168.674L120.473 168.458L121.263 168.09L121.658 167.874L122.053 167.658L122.842 167.29L123.237 167.074L123.632 166.858L124.422 166.49L124.817 166.274L125.212 166.058L126.002 165.69L126.397 165.474L126.792 165.258L127.582 164.89L127.977 164.674L128.372 164.459L129.162 164.091L129.557 163.875L129.952 163.659L130.742 163.291L131.137 163.075L131.532 162.859L132.322 162.491L132.717 162.275L133.112 162.059L133.902 161.691L134.297 161.475L134.692 161.259L135.482 160.891L135.877 160.675L136.272 160.459L137.062 160.091L137.457 159.875L137.852 159.659L138.642 159.291L139.037 159.075L139.432 158.859L140.221 158.491L140.616 158.275L141.011 158.059L141.801 157.691L142.196 157.475L142.591 157.259L143.381 156.891L143.776 156.675L144.171 156.459L144.961 156.091L145.356 155.875L145.751 155.66L146.541 155.292L146.936 155.076L147.331 154.86L148.121 154.492L148.516 154.276L148.911 154.06L149.701 153.692L150.127 153.476L150.491 153.292L151.281 153.076L152.071 152.86L152.434 152.676L152.861 152.46L153.651 152.092L154.046 151.876L154.441 151.66L155.231 151.292L155.626 151.076L156.021 150.86L156.811 150.492L157.205 150.276L157.6 150.06L158.39 149.692L158.785 149.476L159.18 149.26L159.97 148.892L160.365 148.676L160.76 148.46L161.55 148.092L161.945 147.876L162.34 147.66L163.13 147.292L163.525 147.076L163.92 146.861L164.71 146.493L165.105 146.277L165.5 146.061L166.29 145.693L166.717 145.477L167.08 145.293L167.87 145.077L168.66 144.861L169.023 144.677L169.45 144.461L170.24 144.069L170.508 143.877L171.03 143.477L171.551 143.077L171.82 142.885L172.61 142.493L173.005 142.277L173.4 142.061L174.19 141.693L174.584 141.477L174.979 141.261L175.769 140.893L176.164 140.677L176.559 140.461L177.349 140.093L177.744 139.877L178.139 139.661L178.929 139.293L179.324 139.077L179.719 138.861L180.509 138.493L180.936 138.277L181.299 138.094L182.089 137.878L182.879 137.662L183.242 137.478L183.669 137.262L184.459 136.87L184.727 136.678L185.249 136.278L185.802 135.878L186.039 135.718L186.829 135.478L187.619 135.262L187.982 135.078L188.409 134.862L189.199 134.494L189.594 134.278L189.989 134.062L190.779 133.694L191.174 133.478L191.568 133.262L192.358 132.894L192.753 132.678L193.148 132.462L193.938 132.094L194.333 131.878L194.728 131.662L195.518 131.294L195.913 131.078L196.308 130.862L197.098 130.494L197.493 130.278L197.888 130.062L198.678 129.694L199.073 129.478L199.468 129.263L200.258 128.895L200.653 128.679L201.048 128.463L201.838 128.095L202.233 127.879L202.628 127.663L203.418 127.295L203.813 127.079L204.208 126.863L204.998 126.495L205.393 126.279L205.788 126.063L206.578 125.695L206.973 125.479L207.368 125.263L208.158 124.895L208.553 124.679L208.947 124.463L209.737 124.095L210.132 123.879L210.527 123.663L211.317 123.295L211.712 123.079L212.107 122.863L212.897 122.495L213.292 122.279L213.687 122.063L214.477 121.695L214.912 121.479L215.267 121.303L216.057 121.183L216.776 121.479L216.847 121.535L217.179 122.279L217.234 123.079L217.242 123.879V124.679V125.479V126.279V127.079V127.879V128.679V129.478V130.278V131.078V131.878V132.678V133.478V134.278V135.078V135.878V136.678V137.478V138.277V139.077V139.877V140.677V141.477V142.277V143.077V143.877V144.677V145.477V146.277V147.076V147.876V148.676V149.476L217.203 150.276L217.029 151.076L216.847 151.476L216.665 151.876L216.492 152.676L216.452 153.476L216.413 154.276L216.239 155.076L216.057 155.476L215.875 155.875L215.694 156.675L215.631 157.475L215.449 158.275L215.267 158.675L215.085 159.075L214.872 159.875L214.659 160.675L214.477 161.043L214.264 161.475L213.901 162.275L213.687 162.675L213.474 163.075L213.111 163.875L212.897 164.275L212.684 164.674L212.321 165.474L212.107 165.874L211.894 166.274L211.531 167.074L211.317 167.474L211.104 167.874L210.717 168.674L210.527 168.946L210.132 169.474L209.737 169.994L209.548 170.274L209.137 171.074L208.947 171.346L208.529 171.874L208.158 172.266L207.763 172.674L207.368 173.074L206.973 173.473L206.578 173.873L206.183 174.273L205.788 174.673L205.393 175.073L204.998 175.473L204.603 175.873L204.208 176.273L203.813 176.673L203.418 177.073L203.023 177.473L202.628 177.873L202.233 178.273L201.838 178.673L201.435 179.073L201.048 179.449L200.527 179.873L200.258 180.065L199.468 180.481L199.199 180.673L198.678 181.097L198.283 181.473L197.888 181.849L197.367 182.272L197.098 182.464L196.308 182.856L195.913 183.072L195.518 183.288L194.728 183.656L194.333 183.872L193.938 184.088L193.148 184.456L192.753 184.672L192.358 184.888L191.568 185.256L191.174 185.472L190.779 185.688L189.989 186.056L189.594 186.272L189.199 186.488L188.409 186.88L188.14 187.072L187.619 187.472L187.097 187.872L186.829 188.064L186.039 188.456L185.612 188.672L185.249 188.856L184.459 189.072L183.669 189.288L183.306 189.472L182.879 189.688L182.089 190.056L181.694 190.272L181.299 190.488L180.509 190.856L180.114 191.071L179.719 191.287L178.929 191.655L178.534 191.871L178.139 192.087L177.349 192.455L176.954 192.671L176.559 192.887L175.769 193.255L175.374 193.471L174.979 193.687L174.19 194.079L173.921 194.271L173.4 194.671L172.878 195.071L172.61 195.263L171.82 195.655L171.425 195.871L171.03 196.087L170.24 196.455L169.813 196.671L169.45 196.855L168.66 197.071L167.87 197.287L167.506 197.471L167.08 197.687L166.29 198.055L165.895 198.271L165.5 198.487L164.71 198.855L164.315 199.071L163.92 199.287L163.13 199.655L162.735 199.87L162.34 200.086L161.55 200.454L161.155 200.67L160.76 200.886L159.97 201.254L159.575 201.47L159.18 201.686L158.39 202.054L157.995 202.27L157.6 202.486L156.811 202.854L156.416 203.07L156.021 203.286L155.231 203.654L154.836 203.87L154.441 204.086L153.651 204.454L153.256 204.67L152.861 204.886L152.071 205.254L151.676 205.47L151.281 205.686L150.491 206.054L150.096 206.27L149.701 206.486L148.911 206.854L148.516 207.07L148.121 207.286L147.331 207.654L146.936 207.87L146.541 208.086L145.751 208.454L145.356 208.669L144.961 208.885L144.171 209.253L143.776 209.469L143.381 209.685L142.591 210.053L142.196 210.269L141.801 210.485L141.011 210.853L140.585 211.069L140.221 211.253L139.432 211.469L138.642 211.709L138.405 211.869L137.852 212.269L137.33 212.669L137.062 212.861L136.272 213.253L135.845 213.469L135.482 213.653L134.692 213.869L133.902 214.085L133.538 214.269L133.112 214.485L132.322 214.853L131.927 215.069L131.532 215.285L130.742 215.653L130.347 215.869L129.952 216.085L129.162 216.453L128.767 216.669L128.372 216.885L127.582 217.253L127.187 217.468L126.792 217.684L126.002 218.052L125.607 218.268L125.212 218.484L124.422 218.852L124.027 219.068L123.632 219.284L122.842 219.652L122.447 219.868L122.053 220.084L121.263 220.452L120.868 220.668L120.473 220.884L119.683 221.252L119.288 221.468L118.893 221.684L118.103 222.052L117.708 222.268L117.313 222.484L116.523 222.852L116.128 223.068L115.733 223.284L114.943 223.652L114.548 223.868L114.153 224.084L113.363 224.476L113.094 224.668L112.573 225.068L112.06 225.468L111.783 225.66L110.993 226.075L110.725 226.267L110.203 226.691L109.808 227.067L109.413 227.443L108.892 227.867L108.623 228.059L107.833 228.475L107.565 228.667L107.043 229.091L106.656 229.467L106.253 229.875L105.882 230.267L105.463 230.795L105.274 231.067L104.863 231.867L104.674 232.139L104.255 232.667L103.884 233.059L103.489 233.467L103.094 233.875L102.722 234.267L102.304 234.795L102.114 235.066L101.727 235.866L101.514 236.266L101.3 236.666L100.937 237.466L100.724 237.866L100.51 238.266L100.147 239.066L99.9338 239.466L99.7205 239.866L99.3571 240.666L99.1438 241.098L98.9621 241.466L98.7489 242.266L98.5356 243.066L98.3539 243.466L98.1722 243.865L97.9589 244.665L97.7456 245.465L97.5639 245.865L97.3822 246.265L97.2084 247.065L97.169 247.865V248.665V249.465V250.265L97.1611 251.065L97.09 251.865L96.774 252.504L96.3079 252.664L95.984 252.728ZM216.057 253.552L215.836 253.464L215.267 253.24L214.477 252.88L214.082 252.664L213.687 252.449L212.897 252.057L212.629 251.865L212.107 251.465L211.586 251.065L211.317 250.873L210.527 250.481L210.132 250.265L209.737 250.049L208.947 249.681L208.553 249.465L208.158 249.249L207.368 248.881L206.973 248.665L206.578 248.449L205.788 248.081L205.393 247.865L204.998 247.649L204.208 247.281L203.813 247.065L203.418 246.849L202.628 246.481L202.233 246.265L201.838 246.049L201.048 245.681L200.653 245.465L200.258 245.249L199.468 244.881L199.073 244.665L198.678 244.449L197.888 244.081L197.493 243.865L197.098 243.65L196.308 243.282L195.913 243.066L195.518 242.85L194.728 242.482L194.333 242.266L193.938 242.05L193.148 241.682L192.753 241.466L192.358 241.25L191.568 240.858L191.3 240.666L190.779 240.266L190.257 239.866L189.989 239.674L189.199 239.282L188.804 239.066L188.409 238.85L187.619 238.482L187.224 238.266L186.829 238.05L186.039 237.682L185.644 237.466L185.249 237.25L184.459 236.882L184.064 236.666L183.669 236.45L182.879 236.082L182.484 235.866L182.089 235.65L181.299 235.282L180.904 235.066L180.509 234.85L179.719 234.483L179.324 234.267L178.929 234.051L178.139 233.683L177.744 233.467L177.349 233.251L176.559 232.883L176.164 232.667L175.769 232.451L174.979 232.083L174.584 231.867L174.19 231.651L173.4 231.283L173.005 231.067L172.61 230.851L171.82 230.459L171.551 230.267L171.03 229.867L170.508 229.467L170.24 229.275L169.45 228.883L169.055 228.667L168.66 228.451L167.87 228.051L167.625 227.867L167.08 227.315L166.898 227.067L166.503 226.267L166.29 225.868L166.077 225.468L165.713 224.668L165.5 224.236L165.326 223.868L165.145 223.068L165.113 222.268L165.145 221.468L165.318 220.668L165.5 220.268L165.682 219.868L165.895 219.068L166.132 218.268L166.29 218.028L166.709 217.468L167.08 217.077L167.483 216.669L167.87 216.293L168.391 215.869L168.66 215.677L169.45 215.261L169.726 215.069L170.24 214.669L170.761 214.269L171.03 214.077L171.82 213.685L172.215 213.469L172.61 213.253L173.4 212.885L173.795 212.669L174.19 212.453L174.979 212.085L175.374 211.869L175.769 211.653L176.559 211.285L176.954 211.069L177.349 210.853L178.139 210.485L178.534 210.269L178.929 210.053L179.719 209.685L180.114 209.469L180.509 209.253L181.299 208.885L181.694 208.669L182.089 208.454L182.879 208.086L183.274 207.87L183.669 207.654L184.459 207.286L184.854 207.07L185.249 206.854L186.039 206.486L186.434 206.27L186.829 206.054L187.619 205.686L188.014 205.47L188.409 205.254L189.199 204.886L189.594 204.67L189.989 204.454L190.779 204.086L191.174 203.87L191.568 203.654L192.358 203.286L192.785 203.07L193.148 202.886L193.938 202.67L194.728 202.454L195.092 202.27L195.518 202.054L196.308 201.686L196.703 201.47L197.098 201.254L197.888 200.862L198.157 200.67L198.678 200.27L199.199 199.87L199.468 199.679L200.258 199.287L200.685 199.071L201.048 198.887L201.838 198.671L202.628 198.455L202.991 198.271L203.418 198.055L204.208 197.687L204.603 197.471L204.998 197.255L205.788 196.887L206.183 196.671L206.578 196.455L207.368 196.087L207.763 195.871L208.158 195.655L208.947 195.287L209.342 195.071L209.737 194.855L210.527 194.487L210.922 194.271L211.317 194.055L212.107 193.687L212.502 193.471L212.897 193.255L213.687 192.887L214.082 192.671L214.477 192.455L215.267 192.095L215.836 191.871L216.057 191.783L216.468 191.871L216.847 192.023L217.163 192.671L217.234 193.471L217.242 194.271V195.071V195.871V196.671V197.471V198.271V199.071V199.87V200.67V201.47V202.27V203.07V203.87V204.67V205.47V206.27V207.07V207.87V208.669V209.469V210.269V211.069V211.869V212.669V213.469V214.269V215.069V215.869V216.669V217.468V218.268V219.068V219.868V220.668V221.468V222.268V223.068V223.868V224.668V225.468V226.267V227.067V227.867V228.667V229.467V230.267V231.067V231.867V232.667V233.467V234.267V235.066V235.866V236.666V237.466V238.266V239.066V239.866V240.666V241.466V242.266V243.066V243.865V244.665V245.465V246.265V247.065V247.865V248.665V249.465V250.265V251.065L217.234 251.865L217.163 252.664L216.847 253.312L216.468 253.464L216.057 253.552ZM250.815 257H250.025L249.29 256.664L249.235 256.616L248.903 255.864L248.848 255.064L248.84 254.264V253.464V252.664V251.865V251.065V250.265V249.465V248.665V247.865V247.065V246.265V245.465V244.665V243.865V243.066V242.266V241.466V240.666V239.866V239.066V238.266V237.466V236.666V235.866V235.066V234.267V233.467V232.667V231.867V231.067V230.267V229.467V228.667V227.867V227.067V226.267V225.468V224.668V223.868V223.068V222.268V221.468V220.668V219.868V219.068V218.268V217.468V216.669V215.869V215.069V214.269V213.469V212.669V211.869V211.069V210.269V209.469V208.669V207.87V207.07V206.27V205.47V204.67V203.87V203.07V202.27V201.47V200.67V199.87V199.071V198.271V197.471V196.671V195.871V195.071V194.271V193.471V192.671V191.871V191.071V190.272V189.472V188.672V187.872V187.072V186.272V185.472V184.672V183.872V183.072V182.272V181.473V180.673V179.873V179.073V178.273V177.473V176.673V175.873V175.073V174.273V173.473V172.674V171.874V171.074V170.274V169.474V168.674V167.874V167.074V166.274V165.474V164.674V163.875V163.075V162.275V161.475V160.675V159.875V159.075V158.275V157.475V156.675V155.875V155.076V154.276V153.476V152.676V151.876V151.076V150.276V149.476V148.676V147.876V147.076V146.277V145.477V144.677V143.877V143.077V142.277V141.477V140.677V139.877V139.077V138.277V137.478V136.678V135.878V135.078V134.278V133.478V132.678V131.878V131.078V130.278V129.478V128.679V127.879V127.079V126.279V125.479V124.679V123.879V123.079V122.279V121.479V120.679V119.88V119.08V118.28V117.48V116.68V115.88V115.08V114.28V113.48V112.68V111.881V111.081V110.281V109.481V108.681V107.881V107.081V106.281V105.481V104.681V103.881V103.082V102.282V101.482V100.682V99.8819V99.082L248.88 98.282V97.4821L248.84 97.0825V96.6825L248.88 96.2826V95.4826V94.6827L248.84 93.8828V93.4826L248.88 92.6827L248.84 91.8828V91.0829V90.283V89.4831V88.6831V87.8832V87.0833V86.2834V85.4835V84.6836V83.8837V83.0838V82.2839V81.484V80.6841V79.8841V79.0842V78.2843V77.4844V76.6845V75.8846V75.0847V74.2848V73.4849V72.685V71.8851V71.0851V70.2852V69.4853V68.6854V67.8855V67.0856V66.2857V65.4858V64.6859V63.886V63.0861V62.2861V61.4862V60.6863V59.8864V59.0865V58.2866V57.4867V56.6868V55.8869V55.087V54.2871V53.4871V52.6872V51.8873L248.88 51.0874L248.84 50.2875V49.8878V49.0879V48.288V47.4881V46.6882L249.365 46.176L250.025 46H250.815L251.534 46.288L251.605 46.352L251.937 47.0879L251.992 47.8878V48.6877L252 49.4876V50.2875V51.0874V51.8873V52.6872V53.4871V54.2871V55.087V55.8869V56.6868V57.4867V58.2866V59.0865V59.8864V60.6863V61.4862V62.2861V63.0861V63.886V64.6859V65.4858V66.2857V67.0856V67.8855V68.6854V69.4853V70.2852V71.0851V71.8851V72.685V73.4849V74.2848V75.0847V75.8846V76.6845V77.4844V78.2843V79.0842V79.8841V80.6841V81.484V82.2839V83.0838V83.8837V84.6836V85.4835V86.2834V87.0833V87.8832V88.6831V89.4831V90.283V91.0829V91.8828V92.6827V93.4826V94.2825L251.992 95.0824V95.8823L252 96.6822V97.4821V98.282V99.082V99.8819V100.682V101.482V102.282V103.082V103.881V104.681V105.481V106.281V107.081V107.881V108.681V109.481V110.281V111.081V111.881V112.68V113.48V114.28V115.08V115.88V116.68V117.48V118.28V119.08V119.88V120.679V121.479V122.279V123.079V123.879V124.679V125.479V126.279V127.079V127.879V128.679V129.478V130.278V131.078V131.878V132.678V133.478V134.278V135.078V135.878V136.678V137.478V138.277V139.077V139.877V140.677V141.477V142.277V143.077V143.877V144.677V145.477V146.277V147.076V147.876V148.676V149.476V150.276V151.076V151.876V152.676V153.476V154.276V155.076V155.875V156.675V157.475V158.275V159.075V159.875V160.675V161.475V162.275V163.075V163.875V164.674V165.474V166.274V167.074V167.874V168.674V169.474V170.274V171.074V171.874V172.674V173.473V174.273V175.073V175.873V176.673V177.473V178.273V179.073V179.873V180.673V181.473V182.272V183.072V183.872V184.672V185.472V186.272V187.072V187.872V188.672V189.472V190.272V191.071V191.871V192.671V193.471V194.271V195.071V195.871V196.671V197.471V198.271V199.071V199.87V200.67V201.47V202.27V203.07V203.87V204.67V205.47V206.27V207.07V207.87V208.669V209.469V210.269V211.069V211.869V212.669V213.469V214.269V215.069V215.869V216.669V217.468V218.268V219.068V219.868V220.668V221.468V222.268V223.068V223.868V224.668V225.468V226.267V227.067V227.867V228.667V229.467V230.267V231.067V231.867V232.667V233.467V234.267V235.066V235.866V236.666V237.466V238.266V239.066V239.866V240.666V241.466V242.266V243.066V243.865V244.665V245.465V246.265V247.065V247.865V248.665V249.465V250.265V251.065V251.865V252.664V253.464V254.264L251.992 255.064L251.937 255.864L251.605 256.616L251.55 256.664L250.815 257Z" fill="black"/>
</svg>
